<svg width="40" height="40" viewBox="0 0 40 40" fill="none" xmlns="http://www.w3.org/2000/svg">
<path d="M11.6665 11.6665H9.99984C9.11578 11.6665 8.26794 12.0177 7.64281 12.6428C7.01769 13.2679 6.6665 14.1158 6.6665 14.9998V29.9998C6.6665 30.8839 7.01769 31.7317 7.64281 32.3569C8.26794 32.982 9.11578 33.3332 9.99984 33.3332H24.9998C25.8839 33.3332 26.7317 32.982 27.3569 32.3569C27.982 31.7317 28.3332 30.8839 28.3332 29.9998V28.3332" stroke="#FFA300" stroke-width="4" stroke-linecap="round" stroke-linejoin="round"/>
<path d="M26.6667 8.33327L31.6667 13.3333M33.975 10.9749C34.6314 10.3185 35.0002 9.42824 35.0002 8.49993C35.0002 7.57163 34.6314 6.68135 33.975 6.02493C33.3186 5.36852 32.4283 4.99976 31.5 4.99976C30.5717 4.99976 29.6814 5.36852 29.025 6.02493L15 19.9999V24.9999H20L33.975 10.9749Z" stroke="#FFA300" stroke-width="4" stroke-linecap="round" stroke-linejoin="round"/>
</svg>
