<svg width="41" height="41" viewBox="0 0 41 41" fill="none" xmlns="http://www.w3.org/2000/svg">
<path d="M8.19998 29.725C8.19998 31.4227 9.57732 32.8 11.275 32.8H29.725C31.4226 32.8 32.8 31.4227 32.8 29.725H8.19998ZM8.19998 17.425H32.8V17.0406C32.8 16.1246 32.659 15.4006 32.3579 14.8497C31.1344 12.6075 27.8544 8.20002 20.5 8.20002C13.1456 8.20002 9.8656 12.6011 8.64201 14.8497C8.34091 15.4006 8.19998 16.1181 8.19998 17.0406V17.425ZM6.14998 29.725C6.14998 28.5911 7.06607 27.675 8.19998 27.675H32.8C33.9339 27.675 34.85 28.5911 34.85 29.725C34.85 32.5566 32.5565 34.85 29.725 34.85H11.275C8.44341 34.85 6.14998 32.5566 6.14998 29.725ZM8.19998 19.475C7.06607 19.475 6.14998 18.5589 6.14998 17.425V17.0406C6.14998 15.9388 6.31654 14.8369 6.84185 13.8696C8.26404 11.2494 12.1142 6.15002 20.5 6.15002C28.8858 6.15002 32.7359 11.2494 34.1581 13.8696C34.6834 14.8369 34.85 15.9388 34.85 17.0406V17.425C34.85 18.5589 33.9339 19.475 32.8 19.475H8.19998ZM19.2187 11.275C19.2187 10.5703 19.7953 9.99377 20.5 9.99377C21.2047 9.99377 21.7812 10.5703 21.7812 11.275C21.7812 11.9797 21.2047 12.5563 20.5 12.5563C19.7953 12.5563 19.2187 11.9797 19.2187 11.275ZM14.35 12.0438C15.0547 12.0438 15.6312 12.6203 15.6312 13.325C15.6312 14.0297 15.0547 14.6063 14.35 14.6063C13.6453 14.6063 13.0687 14.0297 13.0687 13.325C13.0687 12.6203 13.6453 12.0438 14.35 12.0438ZM25.3687 13.325C25.3687 12.6203 25.9453 12.0438 26.65 12.0438C27.3547 12.0438 27.9312 12.6203 27.9312 13.325C27.9312 14.0297 27.3547 14.6063 26.65 14.6063C25.9453 14.6063 25.3687 14.0297 25.3687 13.325ZM13.5684 23.5174L9.64138 25.3047C9.17373 25.5161 8.66763 25.625 8.15513 25.625H5.12498C4.56123 25.625 4.09998 25.1638 4.09998 24.6C4.09998 24.0363 4.56123 23.575 5.12498 23.575H8.15513C8.37294 23.575 8.59076 23.5302 8.78935 23.4341L12.7164 21.6531C13.7734 21.1727 15.0034 21.2367 16.0092 21.8197L19.7248 23.985C20.2053 24.2669 20.7947 24.2669 21.2751 23.985L24.7986 21.9286C25.9517 21.256 27.3803 21.2816 28.5078 21.9863L30.6731 23.338C30.9165 23.4917 31.1984 23.5686 31.4867 23.5686H35.875C36.4387 23.5686 36.9 24.0299 36.9 24.5936C36.9 25.1574 36.4387 25.6186 35.875 25.6186H31.4867C30.814 25.6186 30.1542 25.4264 29.584 25.0741L27.4187 23.7288C26.9319 23.4277 26.3233 23.4149 25.83 23.7031L22.3065 25.7596C21.1919 26.413 19.8081 26.413 18.6934 25.7596L14.9778 23.5942C14.5486 23.3444 14.0233 23.3188 13.5684 23.5238V23.5174Z" fill="#451201"/>
</svg>
