<svg width="267" height="42" viewBox="0 0 267 42" fill="none" xmlns="http://www.w3.org/2000/svg">
<path d="M266.484 34.3502C265.651 33.4256 263.409 32.7081 262.126 31.744C260.747 30.7887 259.183 29.2317 259.761 27.4501L259.767 27.4317C260.087 26.4256 261 25.544 261.827 24.7896C268.374 19.9554 266.965 11.193 260.492 6.98775C256.904 4.62108 252.356 4.09651 248.122 4.31757C245.689 4.53511 242.522 4.38774 240.905 6.21933C239.415 8.08688 240.98 11.279 239.233 13.5106C236.528 16.9659 240.86 28.8922 239.984 37.2177C239.844 38.5519 239.446 40.3116 240.888 40.916C243.102 41.7713 246.742 40.837 247.079 38.0125C247.339 36.5879 246.96 34.6537 247.406 33.2221C247.862 31.5159 249.164 30.6598 250.705 31.7335C250.857 31.8335 251.009 31.9475 251.161 32.0721C252.617 33.2923 253.494 34.994 254.822 36.4888C255.896 37.7107 257.148 38.7853 258.527 39.6484C261.887 41.8677 264.709 41.0669 266.531 37.5388C267.019 36.5186 267.3 35.2353 266.482 34.3484L266.484 34.3502ZM256.886 17.5492L256.883 17.5773C256.745 19.0115 256.129 20.315 255.062 21.4484C253.447 23.1589 250.864 24.3405 247.728 24.3133C247.343 24.3256 246.947 24.2028 246.951 23.765C246.94 20.1062 246.794 16.372 247.853 13.0615C247.984 12.8632 248.244 12.7422 248.482 12.6685C252.766 11.1685 257.705 12.2755 256.885 17.5492H256.886ZM236.347 30.0607L236.327 30.0537C235.116 29.6098 233.662 29.9712 232.421 30.2879C230.751 30.7396 229.052 31.1291 227.314 31.4151C225.624 31.6633 224.203 31.951 222.831 31.3519C221.676 30.8326 221.117 29.4651 221.599 28.2861C222.96 24.9712 227.042 26.5536 229.181 24.6466C230.118 23.8238 230.446 22.3466 229.894 21.2071C228.641 18.5703 225.122 19.7747 222.838 19.0738C220.752 18.4948 220.737 15.8562 221.786 14.3317C222.236 13.6395 222.921 13.1378 223.701 12.8641C225.026 12.3799 226.792 12.4492 228.429 12.5202C229.62 12.5781 230.811 12.686 231.992 12.8387C234.393 13.1641 237.478 13.9123 238.102 10.9939C238.544 8.87197 237.844 6.30091 235.613 5.55266C234.367 5.0702 232.684 5.02195 230.919 4.98774C228.897 4.95002 226.742 4.98073 224.68 5.06494C222.48 5.15529 219.97 5.26582 217.919 5.49915C216.994 5.61055 216.166 5.72722 215.393 6.12898C212.654 7.63688 214.467 11.9536 215.084 14.5036C216.686 20.4361 218.08 27.2019 215.682 32.5256C213.7 36.7888 212.59 40.0949 218.724 40.4484C224.926 40.7397 230.859 40.2239 236.391 37.5011C237.602 36.794 238.474 35.6975 238.586 34.3116C238.718 32.6545 237.995 30.6852 236.348 30.0589L236.347 30.0607ZM238.551 22.7448H238.55C238.55 22.7448 238.551 22.7475 238.552 22.7492C238.551 22.7466 238.551 22.7457 238.551 22.7448ZM186.191 24.6492C186.079 23.7861 185.9 22.7826 185.283 22.1712L185.268 22.1562C184.433 21.315 182.889 21.3799 181.71 21.4685C180.507 21.5747 178.883 21.7861 178.574 23.1615C178.393 23.8861 178.595 24.8589 178.755 25.8326C178.873 26.5466 178.984 27.2624 179.088 27.9782C179.412 29.9379 179.646 31.823 177.677 32.8519C175.414 34.023 172.551 33.8326 170.598 32.1712C165.96 28.3422 165.363 17.801 169.877 13.6852C171.939 11.7465 174.8 11.6299 177.173 13.1781C178.325 13.9141 179.664 14.6571 180.981 14.0667C182.277 13.4746 183.726 12.2211 184.092 10.9606C184.51 9.35443 183.271 8.02109 182.043 6.97986C176.166 2.18861 166.221 4.57195 161.939 10.5694C160.503 12.5501 161.297 14.4817 161.486 16.722C161.613 18.6238 161.301 20.5369 160.551 22.2913C159.908 23.7949 158.561 24.2826 158.469 25.9291C158.378 27.1203 158.755 28.4247 159.127 29.6151C159.614 31.1002 160.574 33.3151 161.462 34.5967C165.642 40.752 174.351 42.4564 181.112 39.9484C182.372 39.4695 183.507 38.8379 184.695 38.2405C185.591 37.7712 186.343 37.2423 186.711 36.4984C186.973 35.987 187.044 35.3712 187.044 34.7809C186.991 31.58 186.622 28.065 186.19 24.6484L186.191 24.6492ZM157.974 33.3142C157.741 33.2686 157.508 33.2151 157.279 33.1537L157.253 33.1467C154.352 32.3695 153.771 30.5194 152.155 27.7668C151.942 27.3957 151.691 26.901 152.038 26.5571C152.233 26.3615 152.557 26.2466 152.827 26.1449C154.032 25.7019 155.134 25.0861 156.093 24.3343C159.322 21.8615 160.855 17.679 159.586 13.7878C156.647 3.20352 141.473 2.86405 132.195 5.07546C131.577 5.22722 131.342 5.56582 131.655 6.16407C137.827 17.9554 140.57 25.2308 132.892 38.4256C132.714 38.8712 132.782 39.4239 132.925 39.9142C133.073 40.4414 133.363 40.7555 133.877 40.8248C135.895 40.9449 137.87 40.6651 140.298 40.2862C140.743 40.2142 141.375 40.0844 141.531 39.6432C141.614 39.4309 141.587 39.1642 141.55 38.9291C141.179 36.6519 140.922 34.0853 140.843 31.2765C140.88 30.2931 141.584 30.2651 142.431 30.1212C143.201 30.037 144.277 29.3835 144.897 30.0782C147.012 35.4695 149.479 39.8669 154.821 41.1318C155.63 41.3774 156.295 41.1607 156.743 40.437C157.917 38.7362 158.807 36.5256 159.449 34.5493C159.835 33.4361 158.903 33.4975 157.973 33.3142H157.974ZM150.773 17.2194L150.77 17.2475C150.631 18.6808 150.016 19.9852 148.949 21.1185C147.335 22.8282 144.751 24.0106 141.615 23.9835C141.229 23.9957 140.834 23.8729 140.838 23.4343C140.827 19.7755 140.681 16.0413 141.74 12.7308C141.871 12.5325 142.131 12.4123 142.37 12.3387C146.652 10.8387 151.592 11.9448 150.773 17.2194H150.773ZM104.291 22.0062L104.267 21.9922C103.523 21.5598 102.705 21.2931 101.871 21.1387C101.517 21.0369 100.582 20.9975 100.516 20.6343C100.516 20.4966 100.627 20.3782 100.721 20.2738C101.021 19.9519 101.665 19.4869 102.185 18.9597C104.204 16.9413 105.468 13.886 104.671 11.2992C101.711 3.60879 90.1795 4.44388 81.9823 6.57723C80.397 6.99916 79.4773 7.63688 79.3299 9.32987C78.3272 17.272 78.1727 30.5651 79.6203 38.5186C79.6953 38.8555 79.8048 39.1625 79.9839 39.4177C80.3008 39.8827 80.8692 40.1651 81.6539 40.287C91.0595 40.9335 100.875 38.559 104.983 33.5081C107.787 30.0905 108.736 24.5799 104.291 22.0062ZM86.5147 13.315L86.5244 13.3018C97.0438 7.54741 101.399 18.179 89.0091 19.7764C88.28 19.8668 87.5836 19.9185 86.8165 19.9404C86.7018 19.9448 86.5968 19.9361 86.5359 19.8747C86.467 19.8141 86.4494 19.6817 86.4432 19.5808C86.3329 17.4913 86.2967 14.8913 86.5147 13.3159V13.315ZM87.8651 33.1563H87.8484C87.7071 33.1624 87.5324 33.1589 87.3673 33.1598C87.1784 33.1581 86.9904 33.1642 86.9181 33.1554C86.8827 33.1502 86.8669 33.137 86.858 33.1142C86.7601 32.6265 86.6762 32.0475 86.5862 31.2037C86.4856 30.2966 86.3955 28.68 86.3823 27.265C86.3805 27.0238 86.3752 26.7852 86.3788 26.5396C86.3814 26.4352 86.4449 26.3712 86.5438 26.3317C99.1075 20.3317 104.995 31.2502 87.866 33.1554L87.8651 33.1563ZM206.757 39.1756C202.053 41.2607 196.229 41.3941 191.549 39.2151C190.11 38.5563 188.957 37.4291 188.778 35.8598C188.562 31.5607 188.472 28.3791 187.708 23.5817C187.153 20.0062 185.072 21.1887 184.185 19.0852C183.598 17.8492 183.95 15.2246 184.092 14.508C184.613 12.1834 185.367 9.87198 186.348 7.72548C186.633 7.10793 186.986 6.46231 187.413 5.98161C188.268 4.94652 189.625 4.59739 190.924 4.72458C191.978 4.82897 193.004 5.0395 193.919 5.46055C195.079 5.98249 195.207 6.91846 194.793 8.02986C192.441 13.9781 188.683 26.844 195.668 31.2554C200.927 34.5765 212.581 26.6282 214.901 21.8141C215.601 28.9317 213.755 36.1054 206.757 39.1774L206.757 39.1756ZM135.363 20.4097C132.736 26.4589 122.038 31.4502 119.376 31.4528C120.283 31.387 132.824 27.7782 126.885 15.2904C122.913 6.93337 125.365 0 132.785 0C129.927 4.26581 129.374 6.12985 132.139 10.4693C135.046 15.0334 135.308 19.7159 135.364 20.4106L135.363 20.4097ZM214.609 20.4097C214.564 20.5124 214.517 20.615 214.467 20.7168C212.148 25.5308 204.83 29.623 200.781 30.9773C199.86 31.2852 199.107 31.4519 198.621 31.4528C198.936 31.43 200.649 30.9809 202.506 29.8844C206.004 27.8159 210.011 23.4475 206.132 15.2895C204.299 11.4369 203.834 7.886 204.591 5.17897C205.475 2.01317 208.032 0 212.03 0C210.314 2.56142 209.429 4.25616 209.595 6.14126C209.704 7.39653 210.278 8.73513 211.383 10.4685C211.982 11.408 212.47 12.3536 212.865 13.2676C214.391 16.7922 214.564 19.8589 214.61 20.4097H214.609ZM132.749 34.7203C130.954 37.3905 128.352 39.1055 125.185 40.0186C119.981 41.5142 113.664 40.9116 109.309 37.6142C108.526 37.0397 107.685 36.1739 107.671 35.216C107.649 34.8151 107.733 34.3932 107.878 33.9537C109.795 29.9686 109.876 25.0387 106.654 21.9203C104.398 19.8378 105.697 18.8773 106.384 16.4983C106.668 15.4904 106.802 14.4431 106.753 13.3974C106.509 10.7369 105.798 9.50268 107.193 6.88424C108.223 4.7123 109.756 4.45529 111.961 4.86318C113.282 5.13687 114.781 5.31318 115.497 6.16494C115.908 6.74477 115.571 7.46319 115.329 8.05881C112.991 13.6009 110.282 23.2501 113.579 28.8958C114.878 31.0958 117.291 32.3002 119.701 32.1238H119.703C122.364 32.1212 132.999 28.2019 135.626 22.1527C135.997 26.6589 135.285 31.0633 132.748 34.7195L132.749 34.7203Z" fill="#FFE4B5"/>
<path d="M36.3394 4.84228C36.1425 4.71509 35.8601 4.69053 35.5891 4.65807C34.6968 4.55632 33.7744 4.52825 32.8661 4.52474C29.4935 4.56421 26.1377 4.43 22.7721 4.69579C21.7306 4.72561 21.3555 5.30895 21.1675 6.24492C20.2954 10.3984 19.2654 15.9581 18.4065 20.0845C18.3589 20.3064 18.2997 20.4924 18.2194 20.1529C17.3209 15.9195 16.2679 10.3072 15.3896 6.0265C15.3384 5.81948 15.2687 5.60895 15.1557 5.41334C15.0057 5.1493 14.7815 4.92825 14.4929 4.82211C14.221 4.71772 13.92 4.70018 13.6287 4.68C10.4026 4.4607 7.20568 4.50017 3.98047 4.55193C3.08723 4.56596 2.18163 4.58877 1.30251 4.60456C-0.055013 4.5607 -0.219186 5.22825 0.210665 6.38878C3.20374 15.6888 7.29659 30.6003 10.2711 39.8223C10.49 40.2337 10.836 40.5749 11.2553 40.7828C11.7381 41.0293 12.356 41.1135 12.9279 41.1468C13.7205 41.1767 14.1124 41.1319 15.1134 41.1539C15.9722 41.1609 17.0455 41.1758 18.1673 41.1846C20.8753 41.2065 23.8684 41.1968 24.8384 40.9819C25.1394 40.9091 25.3565 40.7995 25.6566 40.596C26.2612 40.1916 26.5516 39.3732 26.7326 38.7074C28.5111 32.6722 30.7787 25.059 32.6887 18.6116C34.0771 14.0318 35.1804 10.0204 36.3058 6.57036C36.4303 6.2572 36.5892 5.86071 36.6095 5.50018C36.6245 5.22035 36.5565 4.98351 36.3508 4.8493L36.3385 4.8414L36.3394 4.84228ZM54.0409 6.29141C53.4337 5.11684 51.9182 4.61421 50.5898 4.50017C48.9922 4.3607 47.3734 4.38088 45.7696 4.3993C43.9672 4.48789 41.9583 4.3721 40.4358 5.13614C39.4587 5.72913 39.4145 6.83615 39.2927 7.92037C39.2239 8.66598 39.1789 9.54494 39.1515 10.5028C39.0668 13.423 39.1444 17.1204 39.1956 19.9985C39.2036 20.4774 39.2124 20.9424 39.2186 21.4134C39.2724 22.5906 39.1303 23.2818 39.4375 23.959C39.6043 24.2257 39.9141 24.1897 40.3881 23.952C43.548 21.9485 47.3204 19.9327 51.0646 19.0783C53.8256 18.4538 54.5114 18.302 54.469 15.1862C54.4708 13.6081 54.469 11.5213 54.469 9.94582C54.462 8.55897 54.5043 7.13089 54.0471 6.30457L54.0409 6.29317V6.29141ZM47.8686 30.6854C45.5993 30.6898 43.33 31.6635 41.6441 33.1907C41.1366 33.6284 40.675 34.2968 40.1612 34.6012C39.9476 34.7319 39.6943 34.8187 39.501 34.9731C39.0429 35.3626 39.2389 36.1854 39.1965 36.7547C39.1965 37.0161 39.1965 37.2854 39.1965 37.5433C39.1947 38.9293 39.2018 40.4784 40.7818 40.8591C41.4243 41.0337 42.1737 41.0679 42.8419 41.1082C45.9267 41.2661 49.0257 41.317 52.0982 40.9732C52.8529 40.8618 53.7797 40.6477 54.1433 39.9574C54.6738 38.5653 54.4629 36.5302 54.4655 34.5521C54.4478 33.888 54.4355 33.2845 54.4355 32.8222C54.4328 32.6424 54.4178 32.4565 54.3349 32.2994C54.1372 31.9371 53.6093 31.8214 53.2077 31.7064C51.2129 31.2047 49.5633 30.7205 47.8844 30.6863H47.8694L47.8686 30.6854ZM73.9183 6.40896C73.6155 5.52386 72.8617 4.93877 71.9005 4.78439C69.0575 4.41772 66.1739 4.53 63.3106 4.61509C62.4614 4.65807 61.5629 4.67912 60.7385 4.87562C59.9282 5.05895 59.3413 5.51071 59.0888 6.30896C58.7243 7.48528 58.8549 8.80195 58.839 10.0221C58.8558 12.0757 58.8426 14.5976 58.8479 16.7292C58.8487 17.2046 58.8788 17.5687 59.0253 17.8195C59.4075 18.4494 60.5284 18.4108 61.2451 18.5476C66.6293 19.2643 70.0452 20.5573 73.4849 23.5029C73.5387 23.545 73.589 23.5818 73.6358 23.6152C73.8335 23.7555 74.1089 23.6187 74.1142 23.3783C74.1142 23.3766 74.1142 23.3757 74.1142 23.374C74.1142 21.2731 74.1169 13.9222 74.1151 10.5792C74.1151 9.81336 74.1151 9.09143 74.1151 8.34493C74.1089 7.55721 74.1539 7.10282 73.9218 6.42299L73.9174 6.41071L73.9183 6.40896ZM73.1239 27.2722C64.4474 27.2722 64.6866 31.188 59.4913 32.8915C59.0509 33.0372 58.8779 33.4328 58.8496 33.8828C58.8179 34.7363 58.847 35.5951 58.8311 36.4477C58.8761 37.5986 58.599 39.3337 59.3836 40.2451C60.4013 41.4784 64.9037 41.1372 66.5631 41.2179C68.55 41.1714 70.596 41.3021 72.536 40.796C73.4725 40.5521 73.8715 39.9275 74.0251 39.0495C74.259 36.9188 74.0568 32.4003 74.1213 28.9003C74.1195 28.1854 74.1239 27.8205 74.1195 27.5205C74.1177 27.2968 73.2333 27.2722 73.1239 27.2722Z" fill="#FFA300"/>
<path d="M72.1698 25.6696C63.7758 26.0231 61.3847 31.2196 58.9133 31.3038C58.8735 31.3055 58.8329 31.3003 58.7941 31.2906C51.83 29.609 45.0521 26.8704 39.9645 32.3073C39.6917 32.5994 39.1992 32.4099 39.1992 32.0117V26.9222C39.1992 26.8125 39.2398 26.7064 39.3148 26.6257C45.7679 19.7353 64.9532 16.7564 72.4761 24.938C72.7276 25.2117 72.5432 25.6538 72.1698 25.6696Z" fill="#FFE4B5"/>
</svg>
