<svg width="136" height="21" viewBox="0 0 136 21" fill="none" xmlns="http://www.w3.org/2000/svg">
<g clip-path="url(#clip0_268_242)">
<path d="M135.736 17.4966C135.312 17.0256 134.17 16.6601 133.516 16.1691C132.814 15.6825 132.017 14.8894 132.312 13.982L132.315 13.9726C132.478 13.4601 132.943 13.0111 133.364 12.6268C136.699 10.1644 135.981 5.70128 132.684 3.55928C130.857 2.35379 128.54 2.0866 126.383 2.19919C125.144 2.31 123.531 2.23494 122.707 3.16787C121.948 4.11913 122.745 5.74506 121.856 6.88174C120.478 8.64172 122.684 14.7165 122.238 18.9572C122.167 19.6368 121.964 20.5331 122.698 20.8409C123.827 21.2766 125.68 20.8007 125.852 19.362C125.985 18.6364 125.791 17.6512 126.019 16.922C126.251 16.0529 126.914 15.6169 127.699 16.1637C127.776 16.2147 127.854 16.2728 127.931 16.3362C128.673 16.9577 129.119 17.8245 129.796 18.5859C130.343 19.2083 130.981 19.7556 131.683 20.1953C133.395 21.3257 134.832 20.9178 135.76 19.1207C136.009 18.6011 136.152 17.9474 135.735 17.4957L135.736 17.4966ZM130.847 8.93885L130.846 8.95315C130.775 9.68368 130.462 10.3476 129.918 10.9249C129.096 11.7962 127.78 12.398 126.183 12.3842C125.986 12.3904 125.785 12.3279 125.787 12.1049C125.781 10.2413 125.707 8.33923 126.246 6.65298C126.313 6.552 126.445 6.49034 126.567 6.45281C128.749 5.68877 131.264 6.25264 130.847 8.93885H130.847ZM120.385 15.3117L120.375 15.3081C119.759 15.082 119.018 15.2661 118.386 15.4274C117.535 15.6575 116.67 15.8559 115.784 16.0016C114.924 16.128 114.2 16.2746 113.501 15.9694C112.913 15.7049 112.628 15.0083 112.874 14.4078C113.567 12.7193 115.646 13.5253 116.736 12.554C117.213 12.1349 117.38 11.3824 117.099 10.802C116.46 9.45894 114.668 10.0724 113.505 9.7154C112.442 9.42051 112.434 8.07651 112.969 7.29996C113.198 6.94743 113.547 6.69185 113.944 6.55245C114.619 6.30581 115.519 6.34111 116.353 6.3773C116.959 6.40679 117.566 6.46174 118.167 6.53949C119.39 6.70525 120.962 7.08638 121.28 5.59985C121.505 4.51902 121.148 3.20943 120.012 2.8283C119.377 2.58255 118.52 2.55798 117.621 2.54055C116.591 2.52134 115.493 2.53698 114.443 2.57987C113.322 2.62589 112.044 2.68219 110.999 2.80104C110.528 2.85779 110.106 2.91721 109.713 3.12185C108.318 3.88991 109.241 6.08866 109.555 7.38753C110.371 10.4093 111.081 13.8555 109.86 16.5672C108.85 18.7387 108.285 20.4227 111.409 20.6028C114.568 20.7511 117.59 20.4884 120.408 19.1015C121.025 18.7414 121.469 18.1829 121.526 17.4769C121.593 16.6329 121.225 15.6298 120.386 15.3108L120.385 15.3117ZM121.508 11.5853H121.508C121.508 11.5853 121.508 11.5866 121.509 11.5875C121.508 11.5862 121.508 11.5857 121.508 11.5853ZM94.8381 12.5553C94.781 12.1157 94.6901 11.6045 94.3754 11.2931L94.3678 11.2855C93.9425 10.857 93.1562 10.8901 92.5555 10.9352C91.9432 10.9893 91.1159 11.0969 90.9586 11.7975C90.866 12.1666 90.9689 12.6621 91.0507 13.1581C91.1105 13.5218 91.1672 13.8864 91.2202 14.251C91.3852 15.2491 91.5044 16.2093 90.5013 16.7334C89.3491 17.3299 87.8906 17.233 86.8957 16.3867C84.5335 14.4364 84.2292 9.06708 86.5283 6.97066C87.5786 5.98321 89.0361 5.92379 90.2446 6.7124C90.8313 7.08728 91.5134 7.46572 92.1846 7.16502C92.8446 6.86343 93.5828 6.22494 93.7689 5.58287C93.982 4.76477 93.3508 4.08562 92.7254 3.55526C89.7316 1.11479 84.6662 2.32877 82.4852 5.3836C81.7537 6.39249 82.1584 7.37636 82.2546 8.51751C82.3193 9.48619 82.1602 10.4607 81.778 11.3543C81.4507 12.1201 80.7646 12.3686 80.7179 13.2072C80.6716 13.814 80.8635 14.4784 81.0528 15.0847C81.301 15.8411 81.7897 16.9693 82.2424 17.6221C84.3712 20.7574 88.8073 21.6255 92.2511 20.3481C92.8927 20.1041 93.4709 19.7824 94.076 19.4782C94.5328 19.2391 94.9158 18.9697 95.1029 18.5908C95.2364 18.3303 95.2728 18.0167 95.2728 17.716C95.2458 16.0856 95.0575 14.2952 94.8376 12.5549L94.8381 12.5553ZM80.4657 16.9689C80.347 16.9457 80.2283 16.9184 80.1114 16.8871L80.0984 16.8836C78.6206 16.4877 78.3247 15.5454 77.5015 14.1433C77.3932 13.9543 77.2655 13.7023 77.4422 13.5271C77.5411 13.4275 77.7066 13.369 77.8437 13.3171C78.4578 13.0915 79.0189 12.7778 79.5076 12.3949C81.1522 11.1354 81.9331 9.00498 81.2866 7.02294C79.7895 1.63174 72.0606 1.45883 67.3346 2.58523C67.0199 2.66253 66.9003 2.835 67.0599 3.13972C70.2034 9.14572 71.6007 12.8516 67.6898 19.5724C67.5994 19.7994 67.634 20.0809 67.7064 20.3307C67.7819 20.5992 67.9298 20.7592 68.1915 20.7945C69.2193 20.8557 70.2254 20.7131 71.4622 20.5201C71.6888 20.4835 72.0107 20.4174 72.0903 20.1926C72.1326 20.0845 72.1186 19.9487 72.0998 19.8289C71.9109 18.669 71.7801 17.3616 71.7396 15.931C71.7585 15.4301 72.1173 15.4158 72.5484 15.3425C72.9409 15.2996 73.489 14.9667 73.8046 15.3206C74.8818 18.0667 76.1384 20.3066 78.8597 20.9508C79.2716 21.076 79.6106 20.9656 79.8385 20.597C80.4364 19.7306 80.8901 18.6047 81.2169 17.598C81.4134 17.031 80.9386 17.0623 80.4652 16.9689H80.4657ZM76.7979 8.77085L76.7961 8.78515C76.7256 9.51523 76.4122 10.1796 75.8686 10.7569C75.0463 11.6277 73.7304 12.23 72.133 12.2162C71.9366 12.2224 71.7351 12.1599 71.7374 11.9365C71.7315 10.0729 71.6574 8.17079 72.1964 6.48453C72.2634 6.38355 72.3956 6.32234 72.5174 6.28481C74.6988 5.52077 77.2147 6.08419 76.7975 8.77085H76.7979ZM53.1218 11.2091L53.1097 11.2019C52.7307 10.9817 52.3139 10.8458 51.889 10.7672C51.7087 10.7154 51.2326 10.6953 51.1989 10.5103C51.1989 10.4401 51.2551 10.3798 51.3032 10.3266C51.4561 10.1627 51.7843 9.92585 52.0491 9.65732C53.0773 8.62921 53.7211 7.07298 53.3151 5.75534C51.8077 1.83817 45.9338 2.26353 41.7585 3.35017C40.951 3.56509 40.4826 3.88991 40.4075 4.75226C39.8968 8.79766 39.8181 15.5686 40.5554 19.6198C40.5936 19.7914 40.6494 19.9478 40.7406 20.0778C40.902 20.3146 41.1916 20.4585 41.5912 20.5206C46.382 20.8499 51.3819 19.6404 53.4743 17.0676C54.9026 15.3269 55.3859 12.52 53.1218 11.2091ZM44.0671 6.78211L44.0721 6.7754C49.4302 3.84434 51.6485 9.25966 45.3377 10.0733C44.9663 10.1193 44.6116 10.1457 44.2209 10.1569C44.1624 10.1591 44.1089 10.1546 44.0779 10.1233C44.0428 10.0925 44.0339 10.025 44.0307 9.97366C43.9745 8.90936 43.9561 7.58502 44.0671 6.78255V6.78211ZM44.755 16.8885H44.7464C44.6745 16.8916 44.5855 16.8898 44.5014 16.8903C44.4052 16.8894 44.3094 16.8925 44.2726 16.888C44.2546 16.8853 44.2465 16.8786 44.242 16.867C44.1921 16.6186 44.1494 16.3237 44.1035 15.8939C44.0523 15.4319 44.0064 14.6084 43.9997 13.8877C43.9988 13.7648 43.9961 13.6433 43.9979 13.5182C43.9992 13.465 44.0316 13.4324 44.082 13.4123C50.4814 10.3561 53.4801 15.9176 44.7554 16.888L44.755 16.8885ZM105.313 19.9545C102.918 21.0165 99.9512 21.0844 97.5675 19.9746C96.8342 19.639 96.2471 19.0649 96.1558 18.2655C96.0461 16.0757 95.9998 14.4551 95.6109 12.0116C95.3281 10.1904 94.268 10.7927 93.8166 9.72121C93.5176 9.09166 93.6966 7.75481 93.7689 7.38977C94.0342 6.20572 94.4186 5.02838 94.9181 3.93504C95.0633 3.62049 95.2431 3.29164 95.4607 3.04679C95.8959 2.51955 96.5874 2.34172 97.2487 2.40651C97.786 2.45968 98.3084 2.56691 98.7746 2.78138C99.3654 3.04723 99.4306 3.52398 99.2197 4.09008C98.0216 7.11989 96.1072 13.6732 99.6653 15.9202C102.344 17.6119 108.28 13.5633 109.462 11.1112C109.818 14.7366 108.878 18.3906 105.314 19.9554L105.313 19.9545ZM68.9486 10.3959C67.6102 13.4771 62.1612 16.0194 60.8052 16.0208C61.2674 15.9873 67.6551 14.1491 64.6303 7.78832C62.6067 3.53157 63.8561 0 67.6354 0C66.1796 2.17283 65.8982 3.1223 67.3063 5.33266C68.7872 7.6574 68.9203 10.0425 68.9491 10.3963L68.9486 10.3959ZM109.313 10.3959C109.29 10.4482 109.266 10.5004 109.241 10.5523C108.06 13.0044 104.332 15.0887 102.27 15.7786C101.8 15.9354 101.417 16.0203 101.17 16.0208C101.33 16.0091 102.203 15.7804 103.148 15.2219C104.93 14.1683 106.971 11.9432 104.995 7.78787C104.062 5.82549 103.825 4.01681 104.211 2.63796C104.661 1.02543 105.963 0 107.999 0C107.125 1.30468 106.675 2.16791 106.759 3.12811C106.815 3.76749 107.107 4.44932 107.67 5.33221C107.975 5.81074 108.224 6.2924 108.425 6.75798C109.202 8.55325 109.29 10.1153 109.313 10.3959H109.313ZM67.6169 17.6851C66.7029 19.0452 65.3775 19.9187 63.764 20.3838C61.1137 21.1457 57.896 20.8387 55.6777 19.1591C55.2789 18.8665 54.8505 18.4255 54.8433 17.9376C54.832 17.7334 54.8747 17.5185 54.9489 17.2946C55.925 15.2648 55.9663 12.7537 54.3253 11.1653C53.1762 10.1046 53.838 9.61532 54.1878 8.40357C54.3325 7.89019 54.4009 7.3567 54.3757 6.82411C54.2512 5.46894 53.8892 4.84028 54.6 3.50655C55.1247 2.40026 55.9052 2.26934 57.0283 2.47711C57.7013 2.61651 58.4647 2.70632 58.8298 3.14017C59.0388 3.43551 58.8671 3.80145 58.7439 4.10483C57.5529 6.92777 56.1731 11.8427 57.8528 14.7183C58.5141 15.8389 59.7433 16.4524 60.9707 16.3626H60.972C62.3275 16.3612 67.7442 14.3649 69.0826 11.2837C69.2714 13.579 68.9086 15.8224 67.6165 17.6847L67.6169 17.6851Z" fill="#451201"/>
<path d="M18.5099 2.46636C18.4097 2.40158 18.2658 2.38907 18.1278 2.37253C17.6732 2.3207 17.2034 2.30641 16.7408 2.30462C15.0229 2.32473 13.3136 2.25636 11.5993 2.39175C11.0688 2.40694 10.8777 2.70407 10.782 3.18081C10.3378 5.29645 9.81311 8.12832 9.37566 10.2301C9.35138 10.3432 9.32126 10.4379 9.28035 10.265C8.82267 8.10866 8.28631 5.24998 7.83897 3.06956C7.81289 2.96411 7.77738 2.85687 7.71983 2.75724C7.6434 2.62275 7.52921 2.51015 7.38219 2.45609C7.24372 2.40292 7.09041 2.39398 6.94205 2.3837C5.29881 2.272 3.6704 2.29211 2.02761 2.31847C1.57263 2.32562 1.11135 2.33724 0.663565 2.34528C-0.0278993 2.32294 -0.111522 2.66296 0.107426 3.25409C1.63198 7.99115 3.71671 15.5864 5.23182 20.2837C5.34331 20.4933 5.51955 20.6671 5.73311 20.773C5.97903 20.8986 6.29374 20.9414 6.58507 20.9584C6.9888 20.9736 7.18842 20.9508 7.69825 20.962C8.1357 20.9656 8.6824 20.9732 9.25382 20.9776C10.6332 20.9888 12.1577 20.9839 12.6518 20.8744C12.8051 20.8373 12.9157 20.7815 13.0686 20.6778C13.3765 20.4719 13.5244 20.055 13.6166 19.7159C14.5225 16.6418 15.6775 12.764 16.6504 9.47992C17.3576 7.14713 17.9196 5.10387 18.4928 3.34658C18.5562 3.18707 18.6371 2.98511 18.6475 2.80147C18.6551 2.65894 18.6205 2.5383 18.5158 2.46994L18.5095 2.46592L18.5099 2.46636ZM27.5264 3.20449C27.2171 2.60621 26.4451 2.35019 25.7685 2.29211C24.9547 2.22107 24.1302 2.23134 23.3133 2.24073C22.3952 2.28585 21.372 2.22687 20.5964 2.61604C20.0988 2.91809 20.0763 3.48196 20.0142 4.03421C19.9792 4.414 19.9562 4.8617 19.9423 5.34962C19.8991 6.83704 19.9387 8.72034 19.9648 10.1863C19.9688 10.4303 19.9733 10.6671 19.9765 10.907C20.0039 11.5066 19.9315 11.8587 20.088 12.2037C20.1729 12.3395 20.3307 12.3212 20.5722 12.2001C22.1817 11.1796 24.1032 10.1528 26.0104 9.71762C27.4167 9.39949 27.766 9.32219 27.7444 7.73513C27.7453 6.93132 27.7444 5.86836 27.7444 5.0659C27.7408 4.35949 27.7624 3.63209 27.5295 3.21119L27.5264 3.20539V3.20449ZM24.3824 15.6298C23.2265 15.632 22.0706 16.128 21.2119 16.9059C20.9534 17.1288 20.7183 17.4693 20.4566 17.6243C20.3478 17.6909 20.2188 17.7352 20.1203 17.8138C19.887 18.0122 19.9868 18.4313 19.9652 18.7213C19.9652 18.8544 19.9652 18.9916 19.9652 19.1229C19.9643 19.8289 19.9679 20.618 20.7727 20.8119C21.1 20.9008 21.4817 20.9182 21.822 20.9388C23.3933 21.0192 24.9718 21.0451 26.5368 20.87C26.9212 20.8132 27.3933 20.7042 27.5785 20.3526C27.8487 19.6435 27.7413 18.6069 27.7426 17.5993C27.7336 17.2611 27.7273 16.9537 27.7273 16.7182C27.726 16.6266 27.7184 16.5319 27.6761 16.4519C27.5754 16.2674 27.3065 16.2084 27.102 16.1499C26.0859 15.8943 25.2456 15.6477 24.3905 15.6302H24.3829L24.3824 15.6298ZM37.6511 3.26436C37.4969 2.81353 37.1129 2.51551 36.6233 2.43687C35.1752 2.25011 33.7064 2.3073 32.2479 2.35064C31.8154 2.37253 31.3578 2.38326 30.9378 2.48334C30.5251 2.57673 30.2261 2.80683 30.0976 3.21343C29.9119 3.8126 29.9784 4.48326 29.9703 5.10477C29.9789 6.15075 29.9721 7.43532 29.9748 8.52107C29.9753 8.76324 29.9906 8.94866 30.0652 9.07645C30.2599 9.39726 30.8308 9.3776 31.1959 9.4473C33.9384 9.81234 35.6783 10.4709 37.4303 11.9713C37.4577 11.9928 37.4834 12.0115 37.5072 12.0285C37.6079 12.1 37.7482 12.0303 37.7509 11.9079C37.7509 11.907 37.7509 11.9065 37.7509 11.9056C37.7509 10.8355 37.7522 7.09128 37.7513 5.38849C37.7513 4.99843 37.7513 4.6307 37.7513 4.25047C37.7482 3.84924 37.7711 3.61779 37.6529 3.27151L37.6506 3.26526L37.6511 3.26436ZM37.2464 13.8913C32.827 13.8913 32.9488 15.8858 30.3026 16.7535C30.0782 16.8277 29.9901 17.0292 29.9757 17.2584C29.9595 17.6932 29.9744 18.1306 29.9663 18.5649C29.9892 19.1511 29.848 20.0349 30.2477 20.4991C30.7661 21.1273 33.0594 20.9535 33.9047 20.9946C34.9167 20.9709 35.9588 21.0375 36.947 20.7797C37.424 20.6555 37.6272 20.3374 37.7055 19.8901C37.8246 18.8048 37.7217 16.5033 37.7545 14.7205C37.7536 14.3564 37.7558 14.1705 37.7536 14.0177C37.7527 13.9038 37.3022 13.8913 37.2464 13.8913Z" fill="#FFA300"/>
<path d="M36.7604 13.0749C32.4848 13.255 31.2669 15.9019 30.0081 15.9448C29.9878 15.9457 29.9672 15.943 29.9474 15.9381C26.4001 15.0816 22.9478 13.6866 20.3563 16.4559C20.2174 16.6047 19.9666 16.5082 19.9666 16.3054V13.713C19.9666 13.6571 19.9872 13.6031 20.0254 13.562C23.3124 10.0523 33.0846 8.53491 36.9164 12.7023C37.0446 12.8417 36.9506 13.0669 36.7604 13.0749Z" fill="#451201"/>
</g>
<defs>
<clipPath id="clip0_268_242">
<rect width="136" height="21" fill="white"/>
</clipPath>
</defs>
</svg>
